<?xml version="1.0" standalone="no"?>
<!DOCTYPE svg PUBLIC "-//W3C//DTD SVG 20010904//EN"
 "http://www.w3.org/TR/2001/REC-SVG-20010904/DTD/svg10.dtd">
<svg version="1.0" xmlns="http://www.w3.org/2000/svg"
 width="455.000000pt" height="455.000000pt" viewBox="0 0 455.000000 455.000000"
 preserveAspectRatio="xMidYMid meet">
<metadata>
Created by potrace 1.14, written by Peter Selinger 2001-2017
</metadata>
<g transform="translate(0.000000,455.000000) scale(0.100000,-0.100000)"
fill="#000000" stroke="none">
<path d="M2075 4399 c-33 -4 -86 -9 -118 -13 -80 -8 -237 -41 -343 -71 -562
-162 -1038 -520 -1323 -996 -56 -95 -151 -290 -151 -312 0 -7 -3 -17 -7 -20
-22 -22 -83 -248 -109 -402 -18 -107 -25 -405 -12 -530 24 -234 96 -470 213
-700 381 -751 1192 -1223 2080 -1210 88 2 183 6 210 9 157 21 210 30 305 52
434 101 805 306 1115 618 404 407 619 927 610 1474 -3 121 -12 250 -20 282 -2
8 -7 31 -10 50 -49 297 -197 631 -396 890 -89 116 -260 291 -370 377 -283 222
-643 392 -969 457 -14 3 -35 7 -48 10 -145 32 -512 51 -657 35z"/>
</g>
</svg>
